/* XPM */
static char *result[] = {
/* columns rows colors chars-per-pixel */
"32 32 30 1 ",
"  c #060201",
". c #070202",
"X c #070302",
"o c #090302",
"O c #090303",
"+ c #0A0303",
"@ c #0C0403",
"# c #0D0404",
"$ c #0D0405",
"% c #0F0706",
"& c #110606",
"* c #120706",
"= c #130707",
"- c #130808",
"; c #150A09",
": c #170A09",
"> c #180B0A",
", c #190B0B",
"< c #1A0D0C",
"1 c #1B0D0D",
"2 c #1D0F0E",
"3 c #1D100E",
"4 c #1E110F",
"5 c #1F1010",
"6 c #201111",
"7 c #211212",
"8 c #211213",
"9 c #231313",
"0 c #271516",
"q c white",
/* pixels */
"*%$:-$#=%=:;*&%*#*$$%#$#O@&%o+#o",
"$#O#:$#*-#*-=&%$#7$$;$$@$$%@@OOX",
"$o+<<1,#%&=$<$#O;-$$>>>>$@>@##XX",
"##6:<<%@<1,@O#@+>,>$$::$$:;>:O:o",
"#*;:,<=2<<:=-#O>%>>,$$:$::@#+O7o",
"%9>>,1*<<>;;-O$&&%+<<$:$$$+@%$7;",
"&2<1<&%:=--$%$1=<$&<<$:$$$:#@77-",
"%%<2&=*#=&>&13,3,<@&,%$$$:>#<,8,",
"&#&==*&+$:%-11<,13&&##$$$:%%%+-;",
"%<1<1-$<*%=*11<1;3-$#@$*%$$%%#+,",
"<<>&=1&<2<2--<1::*$;-;3;=-*><>++",
"3&#$%&&&<125-*13&#==-<484-*3,>$@",
"<&:<>&$#&%=>*#%**%@-*354,,=<<:,%",
"#*23,>$#%%%&@*=1:,*--:47<6=&<$:&",
"@-522,$%:<2;&&>1321=-;<<:3-&%*,#",
"<>-<:&%#*;>===1268<:%;1<,,--==3&",
"#,%@#%%#&;;=:=276>>**:1>=:-=;*&*",
"@##@O+>:<;**&&&-:*=*=->>,<&=-%%%",
"#$+oO#%;>;<%-%%@$-@$:,><1$%>:#$+",
"@%#OO$$:>:;-;&*$*#$%:5<3&%$::,#;",
"@$@#&&&$*&==&->&$&&&,;*=%@$>4<#:",
"$>>%*#=&&**-*,>;@+-%>;%%$$>=,$#;",
"#:>$->%$%;;;,>1&$$#$%+#%><<*>&$;",
"$>:%1::$*:=%$&#$#&;==-=><3&%%&>-",
"%8>>&@&&*$$$@$@#=,,>,>:,:-,><,>@",
"O@%>++$&*%#@*=#%=33*1<<7-*&,,>#+",
"#@#&$:,,>;=+*=**=3*&=44-%1**$@+@",
"#%*1*%111<:>*=$O;2&*===%54&$@1OO",
"&$11&&77:;8:4&;##%,%3$12<,&#<1,+",
"##<<,;>0<:,14*<%:><,31%313*13>;O",
"@+:<,;,<>7241*=%;:1=1$#@<*<1>;-.",
"&,#:$*6:=42<,>@++$%##$#,+&*$OX  "
};
