/* XPM */
static char *result[] = {
/* columns rows colors chars-per-pixel */
"32 32 12 1 ",
"  c #0E0A05",
". c #1E150B",
"X c #2F2010",
"o c #3F2B16",
"O c #50371D",
"+ c #5F4122",
"@ c #714D28",
"# c #81582E",
"$ c #916334",
"% c #A36F3A",
"& c #B17940",
"* c white",
/* pixels */
"%&&%&$&&&&&%%%$%&&&&%&&&%%&%&%@O",
"&@+@++@##@@@@#@#@++@+@###@@@@@oX",
"&@  .     .  . .  .X.    .XX  O.",
"%@ .$@X $@@oX+O.O.#. X#X @@o .oX",
"%#.$@o. $ooXo X#.+.#.#X.  .OoXOX",
"&# $oX $@X  O.#o.$+o.#o  @oooX+.",
"&@X+ooX$o O+#o.. #+o+ @@# .O X+.",
"&+.o@. OX. X.#@+O.o ##@oo @o .O.",
"%@.++X.@oX @o O$o. #o. o. @.  o.",
"&+.OoX+o ..$oXX$o.#Oo.#o OOo. O ",
"&+  .Oo o o $o .. #o @O +o.O. o.",
"%+ +.  X. $O .ooX.  .ooX ..@O.O ",
"&@.$oX . $O .o#$$@#o. #OXX $o.O ",
"%@ $o X$O .O#$.o X #@o Ooo ooXo.",
"$@.#O$XO .X$X.o# #O .Xo  O@O.X+ ",
"$+ .o@  .o#.. .O$O   $@o..Oo. O.",
"&+.X..X  ..OO  .. .#$o.   X.  O.",
"&O X@$$+o  .XO@$$##X.   OooO. O ",
"%@ +o.O++    .XOXoo. ..o$O @O.O ",
"&@ #o.  $  O . ...  .oo$o  $O.+X",
"&+ $@o.    X$Oo. #$$#  $.  @O.@X",
"&+  $@OoX   $oX+X Oo$#o +O O. + ",
"&@  #oooX .#Oo +o #Oo++O   .. O ",
"%@ X XOX o.oo +Oo  #..o+O...o +.",
"%+X+  OX .    oo.+o   .@Oo.oO O.",
"&OX$o X  o$$Oo..+O$$.o@OO. @@ OX",
"%+X$+o  o+O $@  o  @@@oO$. @o O.",
"%+ O$+oo+#O   O .$ O  .o@$@oo +X",
"&O o+###+oO oO.o.#O.@$$@OO@o  @.",
"&OX  X   .X. ... .X .X. ..X.. @.",
"@O+@@@++@@@++@@@+O+@@@+@+@+OO++ ",
"+  .  X.  .  . ..   ..  . ..XX  "
};
