/* XPM */
static char *result[] = {
/* columns rows colors chars-per-pixel */
"32 32 90 1 ",
"  c black",
". c #161616",
"X c gray10",
"o c #1B1B1B",
"O c #1E1E1E",
"+ c gray17",
"@ c #2C2C2C",
"# c #2D2D2D",
"$ c gray18",
"% c #332E2A",
"& c gray22",
"* c #3A3A3A",
"= c gray23",
"- c #3C3C3C",
"; c #3E3E3E",
": c #3F3F3F",
"> c #413C38",
", c #766318",
"< c gray25",
"1 c #414141",
"2 c gray26",
"3 c #434343",
"4 c gray27",
"5 c #494949",
"6 c gray29",
"7 c #4B4B4B",
"8 c #4E4E4E",
"9 c gray31",
"0 c #514E4B",
"q c #505050",
"w c #565656",
"e c #585858",
"r c #5A5A5A",
"t c #5B5B5B",
"y c #5D5D5D",
"u c gray37",
"i c gray38",
"p c #626262",
"a c gray40",
"s c #676767",
"d c #686868",
"f c DimGray",
"g c gray43",
"h c #716D68",
"j c gray46",
"k c gray47",
"l c #7B7B7B",
"z c gray49",
"x c #7E7E7E",
"c c gray50",
"v c #A19123",
"b c #B1A627",
"n c #CEC932",
"m c #818181",
"M c #838383",
"N c #868686",
"B c gray53",
"V c #898989",
"C c #8B8B8B",
"Z c gray55",
"A c #909090",
"S c gray57",
"D c #929292",
"F c #939393",
"G c gray58",
"H c #959595",
"J c gray59",
"K c #979797",
"L c #9D9D9D",
"P c gray63",
"I c #A2A2A2",
"U c gray64",
"Y c #A5A5A5",
"T c gray65",
"R c #A9A9A9",
"E c gray68",
"W c #AEAEAE",
"Q c gray69",
"! c #B1B1B1",
"~ c gray71",
"^ c gray72",
"/ c gray75",
"( c gray77",
") c #CECECE",
"_ c LightGray",
"` c gray84",
"' c gray93",
"] c #EEEEEE",
"[ c gray96",
"{ c None",
/* pixels */
"{{{{{{{{{{{{{{{{{{{{{{{{{{{{{{{{",
"{{{{{{{{{{{{{{{{{{{{{{{{{{{{{{{{",
"{{{{{{{{{{{{{{   {{{{{{{{{{{{{{{",
"{{{{{{{{{{{{{ bv,   {{{{{{{{{{{{",
"{{{{{{{{{{{{ b,O++OO  {{{{{{{{{{",
"{{{{{{{{{{{ O8O+>**+*O  {{{{{{{{",
"{{{{{{{{{{ O8O+8****+*OO  {{{{{{",
"{{{{{{{{{ b8O+0:8**<$>++OO {{{{{",
"{{{{{{{{ n,O+88aK_~Dw6;+++O  {{{",
"{{{{{{{ n,O+18VAWY_[`U3&O++OO  {",
"{{{{{{ b,O+82jJdu8()/_M1+OO+++O ",
"{{{{{ O*O+**8G!8pGBH_RA*+OOO+O {",
"{{{{ O*O*+**8M^!R]i=^HZ+*+O+o9 {",
"{{{ O+O++*#exL_jmF*8kSz+*++Xqf  ",
"{{ v+O+O+*+6sTQ8!!HdTPq*%*X9flO ",
"{ n,O+OO++*-C(KIAAE(Gqq*+X9flO  ",
" v,O+OOOO+*#w<kcgycNt**+X9flO  {",
" ,O++OOOO++*+4u4f7ry*8+X9flO  {{",
" vhOO++OOO+*+**8;684*+X9flO  {{{",
" bxlyOO++O++*+**8*84@X9flO  {{{{",
" vx_UlyOO+++*+**8*8+X9flO  {{{{{",
" ,h'__UlyOO++*+**8+X9flO  {{{{{{",
"{ *(''__UlyOO*+**+X9flO  {{{{{{{",
"{{ **(''__UlyO*++X9flO  {{{{{{{{",
"{{{  **(''__UlyO.8flO  {{{{{{{{{",
"{{{{{  **(''__Ul5dlO  {{{{{{{{{{",
"{{{{{{{  **(''_UflO  {{{{{{{{{{{",
"{{{{{{{{{  **('_lO  {{{{{{{{{{{{",
"{{{{{{{{{{{  **(O  {{{{{{{{{{{{{",
"{{{{{{{{{{{{{  O  {{{{{{{{{{{{{{",
"{{{{{{{{{{{{{{{ {{{{{{{{{{{{{{{{",
"{{{{{{{{{{{{{{{{{{{{{{{{{{{{{{{{"
};
