/* XPM */
static char *result[] = {
/* columns rows colors chars-per-pixel */
"32 32 23 1 ",
"  c black",
". c #161405",
"X c #101010",
"o c #181818",
"O c #211E08",
"+ c #2D280A",
"@ c #202020",
"# c gray19",
"$ c #433C10",
"% c #4E4613",
"& c #6E631B",
"* c gray25",
"= c #505050",
"- c #5A5A5A",
"; c #606060",
": c gray43",
"> c #837620",
", c #988925",
"< c #AD9B2A",
"1 c #DCCD6F",
"2 c #DED079",
"3 c #B2B2B2",
"4 c None",
/* pixels */
"44444444444  44444  444444444444",
"4444444444 >,  4  <> 44444444444",
"4444444444 <%<< 2<$& 44444444444",
"4444444444 <$ $2 $%& 44444444444",
"444444444   1 <$,%&   4444444444",
"4444444  @* >1$ %>&.*#  44444444",
"444444 **#.>$<   &$&O#@* 4444444",
"44444 ;=*+>% %   > &%O#** 444444",
" 444 =;**$,>,1,&$<%>,%o### 444 4",
" 44 #*##  $$$%$ >>%$$  o##* 44 4",
" #- ##@      $&$<%      o## -- 4",
" -#*#@        ,1%        o#*#- 4",
" :3:##         &         o#:3: 4",
" -*#o                     o#*- 4",
" 3:#o                     o#:3 4",
" :@@o                     o@@: 4",
" -@*@                     @*@- 4",
" ##*@                     @*## 4",
"4 **@                     @=# 44",
"4 #*@                     @=@ 44",
"4 ##o                     @*@ 44",
"4 ##o                     @=@ 44",
"4 *#X                     @*# 44",
"4 #*o                     o=# 44",
"4 **X                     @=* 44",
"4 =*X                     @*= 44",
"4 ##X                     @;* 44",
"4 ##o                     @=# 44",
"4 #*X                     @*# 44",
"4 *=****=;=;;=;==;;===***=**# 44",
"4 =*##@###**##@@##***@o@@@#@# 44",
"4                             44"
};
