/* XPM */
static char *result[] = {
/* columns rows colors chars-per-pixel */
"32 32 73 1 ",
"  c black",
". c #1F1F01",
"X c #2F0000",
"o c #211F0D",
"O c #2C2A12",
"+ c #0D1721",
"@ c #111D27",
"# c #121F2C",
"$ c #15212C",
"% c #5F0000",
"& c #43401C",
"* c #45451D",
"= c #7F5F05",
"- c #5A5625",
"; c #5F5F30",
": c #716B2F",
"> c #1C2F43",
", c #2C3F4E",
"< c #253F5A",
"1 c #2F475C",
"2 c #3A5369",
"3 c #2E4F71",
"4 c #7E5948",
"5 c #7F7F41",
"6 c #9F0100",
"7 c #BF0201",
"8 c #FF0302",
"9 c #9F7708",
"0 c #A4755E",
"q c #FF7F7F",
"w c #BF8F0C",
"e c #FEBF15",
"r c #9E9642",
"t c #9F9F51",
"y c #92A37C",
"u c #BFBF61",
"i c #DFDF72",
"p c #07059E",
"a c #385F87",
"s c #3E6181",
"d c #3F6282",
"f c #3F668D",
"g c #426485",
"h c #436686",
"j c #4C708F",
"k c #416F9E",
"l c #497096",
"z c #4A7196",
"x c #4D7499",
"c c #507493",
"v c #517594",
"b c #51789C",
"n c #547B9F",
"m c #567DA1",
"M c #577EA1",
"N c #547FAB",
"B c #4B7FB4",
"V c #0E0CDE",
"C c #5C83A6",
"Z c #5D84A7",
"A c #5580AC",
"S c #5C87B2",
"D c #5E89B2",
"F c #6690B9",
"G c #6791B9",
"H c #719FCA",
"J c cyan",
"K c #E4A182",
"L c #FFB591",
"P c #FEFE82",
"I c #C2D9A6",
"U c #FEFEC0",
"Y c None",
/* pixels */
"YYYYYYYYYYYYYYYYYYYYYYY   YYYYYY",
"YYYYYYYYYYYYYYY   YYYY qX8 YYYYY",
"YYYYYYYYYYYYYY ttt  Y 6X87 YYYYY",
"YYYYYYYYYYYYY Uuit5* q8X8 YYYYYY",
"YYYYY YYYYYY UUiiit586X87 YYYYYY",
"YYYY P YYYY UPPiiiu5%XX7 YYYYYYY",
"YYYY PU  YY iiuiutt5X88 YY   YYY",
"YYYY PPUU  VpVJ5555*8V    5;; YY",
"YYYYY iPUUPJVJpVJp*VVtut55;* YYY",
"YYYYYY iPPPiJpVpVJVttut5;;* YYYY",
"YYYYYYY iiPPPiiiuuuuut5;** YYYYY",
"YYYYYYYY tiPPPPPiiut5;;*  YYYYYY",
"YYYYYYYYY  .;uu55;;;*   YYYYYYYY",
"YYYYYYYY 31> 4K00K4 Bv2, YYYYYYY",
"YYYYYYYY GH3&LK4LKKkcvv2# YYYYYY",
"YYYYY   kHG3O=9499=kch<33 YYYYYY",
"YYYY LK0dN3<O9weew93<<&&&: YYYYY",
"YYYY LK0y3<>O=weww&###&Ir:: YYYY",
"YYYY KK0I&&Oo&=ww=O&&LKKI&: YYYY",
"YYYYY  I&&OooO&==OO&&LK0y: YYYYY",
"YYYYYYY &ooooOOOoooO&LK0y YYYYYY",
"YYYYYYY &&OOO--::-&OOK00 YYYYYYY",
"YYYYYY k&&&&-&&&&ooOOO  YYYYYYYY",
"YYYYY GZa&&&&&ooOo33$@++   YYYYY",
"YYYYY DGj &&oo O&&SGCm<>    YYYY",
"YYYYYY fv< &      xb333<+    YYY",
"YYYYYYY 3>> 3     3>>>><+    YYY",
"YYYYYYYY GZv<>    >FGvv>>    YYY",
"YYYYYYY FZzs<>    3AlMs3>    YYY",
"YYYYYYY ng3<>      33<<<<   YYYY",
"YYYYYYYY     YYYYYY       YYYYYY",
"YYYYYYYYYYYYYYYYYYYYYYYYYYYYYYYY"
};
